<?xml version="1.0" encoding="UTF-8"?>
<svg width="91px" height="95px" viewBox="0 0 91 95" version="1.1" xmlns="http://www.w3.org/2000/svg" xmlns:xlink="http://www.w3.org/1999/xlink">
    <!-- Generator: Sketch 55.1 (78136) - https://sketchapp.com -->
    <title>noun_Calendar_2227686</title>
    <desc>Created with Sketch.</desc>
    <g id="Page-1" stroke="none" stroke-width="1" fill="none" fill-rule="evenodd">
        <g id="AIML-lp-utaustin" transform="translate(-164.000000, -1005.000000)" fill="#BF5700" fill-rule="nonzero">
            <g id="4-icon-prog-detail-band" transform="translate(123.000000, 1004.000000)">
                <g id="noun_Calendar_2227686" transform="translate(41.000000, 1.000000)">
                    <g id="Group">
                        <g transform="translate(0.000000, 10.000000)">
                            <path d="M73.5681818,84.7954545 L4.43181818,84.7954545 C2,84.7954545 0.0454545455,82.8181818 0.0454545455,80.4090909 L0.0454545455,4.54545455 C0.0454545455,2.15909091 1.95454545,0.159090909 4.20454545,0.159090909 L21.2045455,0.159090909 C21.9545455,0.159090909 22.5681818,0.772727273 22.5681818,1.52272727 C22.5681818,2.27272727 21.9545455,2.88636364 21.2045455,2.88636364 L4.20454545,2.88636364 C3.54545455,2.88636364 2.77272727,3.61363636 2.77272727,4.54545455 L2.77272727,80.4318182 C2.77272727,81.3409091 3.52272727,82.0909091 4.43181818,82.0909091 L73.0227273,82.0909091 L88.1590909,66.9545455 L88.1590909,4.54545455 C88.1590909,3.63636364 87.4090909,2.88636364 86.5,2.88636364 L67.7045455,2.88636364 C66.9545455,2.88636364 66.3409091,2.27272727 66.3409091,1.52272727 C66.3409091,0.772727273 66.9545455,0.159090909 67.7045455,0.159090909 L86.5,0.159090909 C88.9318182,0.159090909 90.8863636,2.13636364 90.8863636,4.54545455 L90.8863636,67.5 C90.8863636,67.8636364 90.75,68.2045455 90.4772727,68.4545455 L74.5454545,84.4090909 C74.2954545,84.6590909 73.9318182,84.7954545 73.5681818,84.7954545 Z" id="Shape"></path>
                            <path d="M59.6363636,2.86363636 L29.0909091,2.86363636 C28.3409091,2.86363636 27.7272727,2.25 27.7272727,1.5 C27.7272727,0.75 28.3409091,0.136363636 29.0909091,0.136363636 L59.6136364,0.136363636 C60.3636364,0.136363636 60.9772727,0.75 60.9772727,1.5 C60.9772727,2.25 60.3863636,2.86363636 59.6363636,2.86363636 Z" id="Path"></path>
                            <path d="M73.5681818,84.7954545 C72.8181818,84.7954545 72.2045455,84.1818182 72.2045455,83.4318182 L72.2045455,67.2727273 C72.2045455,66.5227273 72.8181818,65.9090909 73.5681818,65.9090909 L89.5,65.9090909 C90.25,65.9090909 90.8636364,66.5227273 90.8636364,67.2727273 L90.8636364,67.5 C90.8636364,68.25 90.25,68.8636364 89.5,68.8636364 C89.2272727,68.8636364 88.9772727,68.7727273 88.75,68.6363636 L74.9318182,68.6363636 L74.9318182,83.4318182 C74.9318182,84.1818182 74.3409091,84.7954545 73.5681818,84.7954545 Z" id="Path"></path>
                            <path d="M89.5,20.2954545 L1.40909091,20.2954545 C0.659090909,20.2954545 0.0454545455,19.6818182 0.0454545455,18.9318182 C0.0454545455,18.1818182 0.659090909,17.5681818 1.40909091,17.5681818 L89.5227273,17.5681818 C90.2727273,17.5681818 90.8863636,18.1818182 90.8863636,18.9318182 C90.8863636,19.6818182 90.25,20.2954545 89.5,20.2954545 Z" id="Path"></path>
                            <g transform="translate(17.500000, 27.500000)" id="Shape">
                                <g transform="translate(20.909091, 0.000000)">
                                    <path d="M12.5227273,30.4772727 L1.56818182,30.4772727 C0.818181818,30.4772727 0.204545455,29.8636364 0.204545455,29.1136364 L0.204545455,18.1590909 C0.204545455,17.4090909 0.818181818,16.7954545 1.56818182,16.7954545 L12.5227273,16.7954545 C13.2727273,16.7954545 13.8863636,17.4090909 13.8863636,18.1590909 L13.8863636,29.1136364 C13.8863636,29.8636364 13.2727273,30.4772727 12.5227273,30.4772727 Z M2.93181818,27.75 L11.1590909,27.75 L11.1590909,19.5227273 L2.93181818,19.5227273 L2.93181818,27.75 L2.93181818,27.75 Z"></path>
                                    <path d="M12.5227273,13.6818182 L1.56818182,13.6818182 C0.818181818,13.6818182 0.204545455,13.0681818 0.204545455,12.3181818 L0.204545455,1.36363636 C0.204545455,0.613636364 0.818181818,0 1.56818182,0 L12.5227273,0 C13.2727273,0 13.8863636,0.613636364 13.8863636,1.36363636 L13.8863636,12.3181818 C13.8863636,13.0681818 13.2727273,13.6818182 12.5227273,13.6818182 Z M2.93181818,10.9545455 L11.1590909,10.9545455 L11.1590909,2.72727273 L2.93181818,2.72727273 L2.93181818,10.9545455 L2.93181818,10.9545455 Z"></path>
                                    <path d="M12.5227273,47.2727273 L1.56818182,47.2727273 C0.818181818,47.2727273 0.204545455,46.6590909 0.204545455,45.9090909 L0.204545455,34.9545455 C0.204545455,34.2045455 0.818181818,33.5909091 1.56818182,33.5909091 L12.5227273,33.5909091 C13.2727273,33.5909091 13.8863636,34.2045455 13.8863636,34.9545455 L13.8863636,45.9090909 C13.8863636,46.6590909 13.2727273,47.2727273 12.5227273,47.2727273 Z M2.93181818,44.5454545 L11.1590909,44.5454545 L11.1590909,36.3181818 L2.93181818,36.3181818 L2.93181818,44.5454545 L2.93181818,44.5454545 Z"></path>
                                </g>
                                <g>
                                    <path d="M12.4318182,30.4772727 L1.47727273,30.4772727 C0.727272727,30.4772727 0.113636364,29.8636364 0.113636364,29.1136364 L0.113636364,18.1590909 C0.113636364,17.4090909 0.727272727,16.7954545 1.47727273,16.7954545 L12.4318182,16.7954545 C13.1818182,16.7954545 13.7954545,17.4090909 13.7954545,18.1590909 L13.7954545,29.1136364 C13.7954545,29.8636364 13.1818182,30.4772727 12.4318182,30.4772727 Z M2.84090909,27.75 L11.0681818,27.75 L11.0681818,19.5227273 L2.84090909,19.5227273 L2.84090909,27.75 Z"></path>
                                    <path d="M12.4318182,13.6818182 L1.47727273,13.6818182 C0.727272727,13.6818182 0.113636364,13.0681818 0.113636364,12.3181818 L0.113636364,1.36363636 C0.113636364,0.613636364 0.727272727,0 1.47727273,0 L12.4318182,0 C13.1818182,0 13.7954545,0.613636364 13.7954545,1.36363636 L13.7954545,12.3181818 C13.7954545,13.0681818 13.1818182,13.6818182 12.4318182,13.6818182 Z M2.84090909,10.9545455 L11.0681818,10.9545455 L11.0681818,2.72727273 L2.84090909,2.72727273 L2.84090909,10.9545455 Z"></path>
                                    <path d="M12.4318182,47.2727273 L1.47727273,47.2727273 C0.727272727,47.2727273 0.113636364,46.6590909 0.113636364,45.9090909 L0.113636364,34.9545455 C0.113636364,34.2045455 0.727272727,33.5909091 1.47727273,33.5909091 L12.4318182,33.5909091 C13.1818182,33.5909091 13.7954545,34.2045455 13.7954545,34.9545455 L13.7954545,45.9090909 C13.7954545,46.6590909 13.1818182,47.2727273 12.4318182,47.2727273 Z M2.84090909,44.5454545 L11.0681818,44.5454545 L11.0681818,36.3181818 L2.84090909,36.3181818 L2.84090909,44.5454545 Z"></path>
                                </g>
                                <g transform="translate(42.045455, 0.000000)">
                                    <path d="M12.3863636,30.4772727 L1.43181818,30.4772727 C0.681818182,30.4772727 0.0681818182,29.8636364 0.0681818182,29.1136364 L0.0681818182,18.1590909 C0.0681818182,17.4090909 0.681818182,16.7954545 1.43181818,16.7954545 L12.3863636,16.7954545 C13.1363636,16.7954545 13.75,17.4090909 13.75,18.1590909 L13.75,29.1136364 C13.75,29.8636364 13.1363636,30.4772727 12.3863636,30.4772727 Z M2.79545455,27.75 L11.0227273,27.75 L11.0227273,19.5227273 L2.79545455,19.5227273 L2.79545455,27.75 Z"></path>
                                    <path d="M12.3863636,13.6818182 L1.43181818,13.6818182 C0.681818182,13.6818182 0.0681818182,13.0681818 0.0681818182,12.3181818 L0.0681818182,1.36363636 C0.0681818182,0.613636364 0.681818182,0 1.43181818,0 L12.3863636,0 C13.1363636,0 13.75,0.613636364 13.75,1.36363636 L13.75,12.3181818 C13.75,13.0681818 13.1363636,13.6818182 12.3863636,13.6818182 Z M2.79545455,10.9545455 L11.0227273,10.9545455 L11.0227273,2.72727273 L2.79545455,2.72727273 L2.79545455,10.9545455 Z"></path>
                                </g>
                            </g>
                        </g>
                        <path d="M63.6363636,22.0227273 C60.7727273,22.0227273 58.4318182,19.6818182 58.4318182,16.8181818 L58.4318182,5.38636364 C58.4318182,2.52272727 60.7727273,0.181818182 63.6363636,0.181818182 C66.5,0.181818182 68.8409091,2.52272727 68.8409091,5.38636364 L68.8409091,16.8181818 C68.8409091,19.6818182 66.5,22.0227273 63.6363636,22.0227273 Z M63.6363636,2.93181818 C62.2727273,2.93181818 61.1590909,4.04545455 61.1590909,5.40909091 L61.1590909,16.8181818 C61.1590909,18.1818182 62.2727273,19.2954545 63.6363636,19.2954545 C65,19.2954545 66.1136364,18.1818182 66.1136364,16.8181818 L66.1136364,5.38636364 C66.1136364,4.02272727 65,2.93181818 63.6363636,2.93181818 Z" id="Shape"></path>
                        <path d="M25,22.0227273 C22.1363636,22.0227273 19.7954545,19.6818182 19.7954545,16.8181818 L19.7954545,5.38636364 C19.7954545,2.52272727 22.1363636,0.181818182 25,0.181818182 C27.8636364,0.181818182 30.2045455,2.52272727 30.2045455,5.38636364 L30.2045455,16.8181818 C30.2045455,19.6818182 27.8636364,22.0227273 25,22.0227273 Z M25,2.93181818 C23.6363636,2.93181818 22.5227273,4.04545455 22.5227273,5.40909091 L22.5227273,16.8181818 C22.5227273,18.1818182 23.6363636,19.2954545 25,19.2954545 C26.3636364,19.2954545 27.4772727,18.1818182 27.4772727,16.8181818 L27.4772727,5.38636364 C27.4772727,4.02272727 26.3636364,2.93181818 25,2.93181818 Z" id="Shape"></path>
                    </g>
                </g>
            </g>
        </g>
    </g>
</svg>