<?xml version="1.0" encoding="UTF-8"?>
<svg width="71px" height="91px" viewBox="0 0 71 91" version="1.1" xmlns="http://www.w3.org/2000/svg" xmlns:xlink="http://www.w3.org/1999/xlink">
    <!-- Generator: Sketch 55.1 (78136) - https://sketchapp.com -->
    <title>noun_career_1549879</title>
    <desc>Created with Sketch.</desc>
    <g id="Page-1" stroke="none" stroke-width="1" fill="none" fill-rule="evenodd">
        <g id="AIML-lp-utaustin" transform="translate(-1197.000000, -977.000000)" fill="#BF5700" fill-rule="nonzero" stroke="#FFFFFF">
            <g id="4-icon-prog-detail-band" transform="translate(164.000000, 976.000000)">
                <g id="noun_career_1549879" transform="translate(1034.000000, 2.000000)">
                    <g id="Group" transform="translate(0.000000, 0.019763)">
                        <path d="M58.4809966,0.15852307 C58.0633758,0.204110679 57.6732254,0.390704366 57.3737331,0.688083881 L49.9142736,8.21961541 C49.4251342,8.6892933 49.2255279,9.3891696 49.3923675,10.0495668 C49.559207,10.709964 50.0664496,11.2277981 50.7186439,11.4035363 C51.3708381,11.5792745 52.0661802,11.3854851 52.5367399,10.8968395 L56.8783784,6.5132528 L56.8783784,19.9287933 C56.868867,20.6078285 57.2222134,21.239433 57.8031142,21.5817531 C58.3840151,21.9240732 59.1024714,21.9240732 59.6833723,21.5817531 C60.2642731,21.239433 60.6176195,20.6078285 60.6081081,19.9287933 L60.6081081,6.63093298 L64.8331926,10.8968395 C65.3037522,11.3854851 65.9990943,11.5792745 66.6512886,11.4035363 C67.3034828,11.2277981 67.8107254,10.709964 67.977565,10.0495668 C68.1444045,9.3891696 67.9447982,8.6892933 67.4556588,8.21961541 L59.9961993,0.688083881 C59.5958924,0.290180707 59.0392784,0.0956450652 58.4809966,0.15852307 L58.4809966,0.15852307 Z M50.1765203,26.5188834 C49.2154517,26.6103365 48.4823241,27.4271211 48.4864689,28.4017663 L48.4864689,86.7711357 C48.4864689,87.8109801 49.3214576,88.6540186 50.3513514,88.6540186 L67.1351351,88.6540186 C68.1650289,88.6540186 69,87.8109801 69,86.7711357 L69,28.4017663 C69,27.3619219 68.1650289,26.5189874 67.1351351,26.5188834 L50.3513514,26.5188834 C50.2931064,26.5161241 50.2347653,26.5161241 50.1765203,26.5188834 Z M52.2162162,30.2846492 L65.2702703,30.2846492 L65.2702703,84.8882528 L52.2162162,84.8882528 L52.2162162,30.2846492 Z M25.933277,38.7576222 C24.9722085,38.8490753 24.2390808,39.6658598 24.2432256,40.6405051 L24.2432256,86.7711357 C24.2432256,87.8109801 25.0782143,88.6540186 26.1081081,88.6540186 L42.8918919,88.6540186 C43.9217857,88.6540186 44.7567568,87.8109801 44.7567568,86.7711357 L44.7567568,40.6405051 C44.7567568,39.6006606 43.9217857,38.7577261 42.8918919,38.7576222 L26.1081081,38.7576222 C26.0498631,38.7548628 25.991522,38.7548628 25.933277,38.7576222 Z M27.972973,42.5233879 L41.027027,42.5233879 L41.027027,84.8882528 L27.972973,84.8882528 L27.972973,42.5233879 Z M10.2567568,45.3477123 C5.64413286,45.3477123 1.86486486,49.1634686 1.86486486,53.8206852 C1.86486486,57.0083495 3.64181627,59.7916288 6.23564189,61.2345366 C2.56850355,62.8200426 0,66.5139086 0,70.7960512 L0,86.7711357 C0,87.8109801 0.834971096,88.6540186 1.86486486,88.6540186 L18.6486486,88.6540186 C19.6785424,88.6540186 20.5135135,87.8109801 20.5135135,86.7711357 L20.5135135,70.7960512 C20.5135135,66.5139086 17.9450109,62.8200426 14.2778716,61.2345366 C16.8716972,59.7916288 18.6486486,57.0083495 18.6486486,53.8206852 C18.6486486,49.1634686 14.8693806,45.3477123 10.2567568,45.3477123 Z M10.2567568,49.113478 C12.8536846,49.113478 14.9189189,51.1986767 14.9189189,53.8206852 C14.9189189,56.4426938 12.8536846,58.5278924 10.2567568,58.5278924 C7.65982893,58.5278924 5.59459459,56.4426938 5.59459459,53.8206852 C5.59459459,51.1986767 7.65982893,49.113478 10.2567568,49.113478 Z M10.2567568,64.1765411 C13.9002812,64.1765411 16.7837838,67.0856422 16.7837838,70.7960512 L16.7837838,84.8882528 L3.72972973,84.8882528 L3.72972973,70.7960512 C3.72972973,67.0856422 6.61324253,64.1765411 10.2567568,64.1765411 Z" id="Shape"></path>
                    </g>
                </g>
            </g>
        </g>
    </g>
</svg>