<?xml version="1.0" encoding="UTF-8"?>
<svg width="95px" height="95px" viewBox="0 0 95 95" version="1.1" xmlns="http://www.w3.org/2000/svg" xmlns:xlink="http://www.w3.org/1999/xlink">
    <!-- Generator: Sketch 55.1 (78136) - https://sketchapp.com -->
    <title>noun_Time_2132020</title>
    <desc>Created with Sketch.</desc>
    <g id="Page-1" stroke="none" stroke-width="1" fill="none" fill-rule="evenodd">
        <g id="AIML-lp-utaustin" transform="translate(-856.000000, -1005.000000)" fill="#BF5700" fill-rule="nonzero">
            <g id="4-icon-prog-detail-band" transform="translate(123.000000, 1004.000000)">
                <g id="noun_Time_2132020" transform="translate(733.000000, 1.000000)">
                    <path d="M0,47.5 C0,73.6916283 21.3083717,95 47.5,95 C73.6916283,95 95,73.6916283 95,47.5 C95,21.3083717 73.6916283,0 47.5,0 C21.3083717,0 0,21.3083717 0,47.5 Z M47.5,2.87878788 C72.1046402,2.87878788 92.1212121,22.8960627 92.1212121,47.5 C92.1212121,72.1039373 72.1046402,92.1212121 47.5,92.1212121 C22.8953598,92.1212121 2.87878788,72.1039373 2.87878788,47.5 C2.87878788,22.8960627 22.8953598,2.87878788 47.5,2.87878788 Z" id="Shape"></path>
                    <path d="M47.5,86.0600142 C68.7619851,86.0600142 86.0600142,68.7619851 86.0600142,47.5 C86.0600142,26.2380149 68.7619851,8.9399858 47.5,8.9399858 C26.2380149,8.9399858 8.9399858,26.2380149 8.9399858,47.5 C8.9399858,68.7619851 26.2380149,86.0600142 47.5,86.0600142 Z M47.5,11.8187737 C67.174997,11.8187737 83.1812263,27.825003 83.1812263,47.5 C83.1812263,67.174997 67.174997,83.1812263 47.5,83.1812263 C27.825003,83.1812263 11.8187737,67.174997 11.8187737,47.5 C11.8187737,27.825003 27.825003,11.8187737 47.5,11.8187737 Z" id="Shape"></path>
                    <path d="M47.5,22.5502708 C48.2956025,22.5502708 48.9393939,21.9057765 48.9393939,21.1108768 L48.9393939,17.9326838 C48.9393939,17.1377841 48.2956025,16.4932898 47.5,16.4932898 C46.7043975,16.4932898 46.0606061,17.1377841 46.0606061,17.9326838 L46.0606061,21.1108768 C46.0606061,21.9057765 46.7043975,22.5502708 47.5,22.5502708 Z" id="Path"></path>
                    <path d="M47.5,72.4497292 C46.7043975,72.4497292 46.0606061,73.0942235 46.0606061,73.8891232 L46.0606061,77.0673162 C46.0606061,77.8622159 46.7043975,78.5067102 47.5,78.5067102 C48.2956025,78.5067102 48.9393939,77.8622159 48.9393939,77.0673162 L48.9393939,73.8891232 C48.9393939,73.0942235 48.2956025,72.4497292 47.5,72.4497292 Z" id="Path"></path>
                    <path d="M66.1601119,30.2792821 C66.5283943,30.2792821 66.8966768,30.1387163 67.1778083,29.8575845 L69.4254556,27.6099372 C69.9877189,27.047674 69.9877189,26.1368075 69.4254556,25.5745442 C68.8631924,25.012281 67.9523259,25.012281 67.3900626,25.5745442 L65.1424153,27.8221916 C64.5801521,28.3844548 64.5801521,29.2953213 65.1424153,29.8575845 C65.4235469,30.1387163 65.7918294,30.2792821 66.1601119,30.2792821 Z" id="Path"></path>
                    <path d="M26.5922408,69.8471531 C26.9605233,69.8471531 27.3288057,69.7065874 27.6099372,69.4254556 L29.8575845,67.1778083 C30.4198478,66.615545 30.4198478,65.7046786 29.8575845,65.1424153 C29.2953213,64.5801521 28.3844548,64.5801521 27.8221916,65.1424153 L25.5745442,67.3900626 C25.012281,67.9523259 25.012281,68.8631924 25.5745442,69.4254556 C25.8556759,69.7065874 26.2239583,69.8471531 26.5922408,69.8471531 Z" id="Path"></path>
                    <path d="M73.8884203,48.9393939 L77.0680191,48.9393939 C77.8636216,48.9393939 78.507413,48.2948997 78.507413,47.5 C78.507413,46.7051003 77.8636216,46.0606061 77.0680191,46.0606061 L73.8884203,46.0606061 C73.0928178,46.0606061 72.4490264,46.7051003 72.4490264,47.5 C72.4490264,48.2948997 73.0928178,48.9393939 73.8884203,48.9393939 Z" id="Path"></path>
                    <path d="M17.9319809,48.9393939 L21.1115797,48.9393939 C21.9071822,48.9393939 22.5509736,48.2948997 22.5509736,47.5 C22.5509736,46.7051003 21.9071822,46.0606061 21.1115797,46.0606061 L17.9319809,46.0606061 C17.1363784,46.0606061 16.492587,46.7051003 16.492587,47.5 C16.492587,48.2948997 17.1363784,48.9393939 17.9319809,48.9393939 Z" id="Path"></path>
                    <path d="M67.3900628,69.4254558 C67.6711944,69.7065874 68.0394769,69.8471533 68.4077592,69.8471533 C68.7760415,69.8471533 69.1443241,69.7065875 69.4254556,69.4254558 C69.9877189,68.8631925 69.9877189,67.952326 69.4254556,67.3900628 L67.1778083,65.1424155 C66.615545,64.5801522 65.7046786,64.5801522 65.1424153,65.1424155 C64.5801521,65.7046787 64.5801521,66.6155452 65.1424153,67.1778084 L67.3900628,69.4254558 Z" id="Path"></path>
                    <path d="M27.8221917,29.8575847 C28.1033233,30.1387163 28.4716058,30.2792822 28.8398881,30.2792822 C29.2081704,30.2792822 29.5764531,30.1387165 29.8575845,29.8575847 C30.4198478,29.2953214 30.4198478,28.384455 29.8575845,27.8221917 L27.6099372,25.5745444 C27.047674,25.0122811 26.1368075,25.0122811 25.5745442,25.5745444 C25.012281,26.1368076 25.012281,27.0476741 25.5745442,27.6099374 L27.8221917,29.8575847 Z" id="Path"></path>
                    <path d="M47.0361328,53.2540616 C48.5019708,53.2540616 49.8267157,52.6862636 50.8437094,51.7804048 L60.2591591,56.5257309 C60.4671964,56.6304524 60.6878849,56.6796505 60.9057619,56.6796505 C61.4328837,56.6796505 61.9389206,56.3900849 62.1919391,55.8882649 C62.5503819,55.1784075 62.2650333,54.3125221 61.555176,53.9547822 L52.4519582,49.3668018 C52.6556026,48.7781825 52.7894916,48.1569695 52.7894916,47.5 C52.7894916,44.8274046 50.9494851,42.5942531 48.4755268,41.9505495 L48.4755268,27.7160645 C48.4755268,26.9211648 47.8317354,26.2766705 47.0361328,26.2766705 C46.2405303,26.2766705 45.5967389,26.9211648 45.5967389,27.7160645 L45.5967389,41.9505495 C43.122517,42.5942531 41.2813684,44.8273168 41.2813684,47.5 C41.2813684,50.6725705 43.8635624,53.2540616 47.0361328,53.2540616 Z M47.0361328,44.6247263 C48.6217152,44.6247263 49.9107037,45.9144176 49.9107037,47.5 C49.9107037,49.0855824 48.6217152,50.3752737 47.0361328,50.3752737 C45.4505505,50.3752737 44.1601562,49.0855824 44.1601562,47.5 C44.1601562,45.9144176 45.4505505,44.6247263 47.0361328,44.6247263 Z" id="Shape"></path>
                </g>
            </g>
        </g>
    </g>
</svg>