<?xml version="1.0" encoding="UTF-8"?>
<svg width="104px" height="95px" viewBox="0 0 104 95" version="1.1" xmlns="http://www.w3.org/2000/svg" xmlns:xlink="http://www.w3.org/1999/xlink">
    <!-- Generator: Sketch 55.1 (78136) - https://sketchapp.com -->
    <title>noun_online video_1599786</title>
    <desc>Created with Sketch.</desc>
    <g id="Page-1" stroke="none" stroke-width="1" fill="none" fill-rule="evenodd">
        <g id="AIML-lp-utaustin" transform="translate(-524.000000, -1005.000000)" fill="#BF5700" fill-rule="nonzero">
            <g id="4-icon-prog-detail-band" transform="translate(123.000000, 1004.000000)">
                <g id="noun_online-video_1599786" transform="translate(401.000000, 1.000000)">
                    <g id="Group">
                        <path d="M51.2406192,60.2367257 C51.5833658,60.2367257 51.9261124,60.1526549 52.2260157,59.9845133 L80.031335,44.2632743 L80.031335,44.2632743 C80.6311415,43.8849558 81.0167315,43.2544248 81.0167315,42.5818584 C81.0167315,41.8672566 80.6311415,41.2787611 80.031335,40.9424779 L52.2260157,25.1792035 C51.6262091,24.8429204 50.8550292,24.8429204 50.2552226,25.1792035 C49.6554161,25.5154867 49.2698261,26.1460177 49.2698261,26.8606195 L49.2698261,58.3871681 C49.2698261,59.1017699 49.6554161,59.6902655 50.2552226,60.0685841 C50.5551259,60.1526549 50.8978725,60.2367257 51.2406192,60.2367257 Z M50.9835592,26.8185841 C50.9835592,26.6924779 51.0692459,26.6084071 51.1120892,26.5663717 C51.1549325,26.5663717 51.1977758,26.5243363 51.2406192,26.5243363 C51.2834625,26.5243363 51.3263058,26.5243363 51.3691491,26.5663717 L79.1744684,42.329646 C79.3029984,42.4137168 79.3029984,42.4977876 79.3029984,42.5818584 C79.3029984,42.6238938 79.3029984,42.75 79.1744684,42.8340708 L51.3691491,58.5553097 C51.2406192,58.6393805 51.1120892,58.5973451 51.0692459,58.5553097 C51.0264025,58.5132743 50.9407159,58.4712389 50.9407159,58.3451327 L50.9407159,26.8185841 L50.9835592,26.8185841 Z" id="Shape"></path>
                        <path d="M3.81305611,49.8539823 C2.18500968,53.0066372 1.79941974,56.4955752 1.41382979,59.8163717 C1.32814314,60.6570796 1.24245648,61.539823 1.1139265,62.3384956 C0.342746616,67.7190265 5.68434189e-14,72.2168142 5.68434189e-14,76.4623894 C5.68434189e-14,76.7566372 5.68434189e-14,77.050885 0.0428433271,77.3871681 C0.514119925,86.8871681 8.95425536,94.789823 18.8510639,94.9579646 C18.9367506,94.9579646 19.0652805,94.9579646 19.1509672,94.9579646 C23.6923599,94.9579646 28.3194392,93.0243363 31.832592,89.6615044 C35.5599615,86.0884956 37.7021278,81.2544248 37.7021278,76.5044248 C37.7021278,72.2588496 37.3593812,67.7610619 36.5882013,62.380531 C36.4596713,61.539823 36.3739847,60.699115 36.288298,59.8584071 C35.9027081,56.4955752 35.5599615,53.0486726 33.8890717,49.8960177 C31.575532,45.4402655 26.2201162,43.2544248 20.9075436,42.75 C20.9075436,42.7079646 20.9503869,42.6659292 20.9503869,42.5818584 C20.9503869,21.4380531 38.4733077,4.20353982 60.0663445,4.20353982 C81.6593814,4.20353982 99.1823021,21.4380531 99.1823021,42.5818584 C99.1823021,63.7256637 81.6593814,80.960177 60.0663445,80.960177 L48.3701163,80.960177 C47.2133464,80.960177 46.2707932,81.8849558 46.2707932,83.0199115 C46.2707932,84.1548673 47.2133464,85.079646 48.3701163,85.079646 L60.0663445,85.079646 C83.972921,85.079646 103.423792,65.9955752 103.423792,42.539823 C103.423792,19.0840708 83.972921,-7.10542736e-14 60.0663445,-7.10542736e-14 C36.159768,-7.10542736e-14 16.7088976,19.0840708 16.7088976,42.539823 C16.7088976,42.5818584 16.7517409,42.6238938 16.7517409,42.6659292 C10.6679884,43.2123894 5.86953581,45.8606195 3.81305611,49.8539823 Z M17.3943908,46.8274336 C23.1782399,46.4070796 28.4051258,48.4247788 30.1188589,51.7455752 C31.4041587,54.2256637 31.7469054,57.1681416 32.0468086,60.2787611 C32.1324953,61.1615044 32.2610253,62.0442478 32.3467119,62.9269912 C33.0750485,68.1393805 33.4177951,72.4690265 33.4177951,76.5044248 C33.4177951,80.2035398 31.7469054,83.9026549 28.8335591,86.7190265 C26.0487429,89.409292 22.4499034,90.880531 18.8939072,90.8384956 C11.139265,90.7123894 4.584236,84.5752212 4.19864605,77.2190265 C4.19864605,76.9668142 4.19864605,76.7566372 4.19864605,76.5044248 C4.19864605,72.4690265 4.54139267,68.1393805 5.26972923,62.9269912 C5.39825921,62.0442478 5.48394586,61.1615044 5.56963252,60.2787611 C5.95522246,57.1261062 6.29796908,54.2256637 7.58326889,51.7035398 C8.95425536,49.0132743 12.7244681,47.1216814 17.3943908,46.8274336 Z" id="Shape"></path>
                        <path d="M14.3096712,64.4402655 C14.3525146,65.3650442 14.6952612,66.1637168 15.3379111,66.7522124 C16.0662476,67.4247788 17.1373308,67.7610619 18.3797873,67.7610619 C18.5083173,67.7610619 18.5940039,67.7610619 18.7225339,67.7610619 C21.5501935,67.6349558 23.3496132,66.1637168 23.3924566,63.9778761 C23.4352999,62.8429204 23.4352999,61.7079646 23.3924566,60.6150442 L23.3924566,59.1858407 L23.3924566,57.840708 C23.3924566,56.789823 23.3924566,55.7389381 23.3924566,54.6880531 C23.3924566,54.6039823 23.3924566,54.4778761 23.3924566,54.3938053 C23.3067699,52.7964602 22.53559,50.8628319 19.4508705,50.6106195 C18.0370407,50.4845133 16.7088976,50.8628319 15.7663444,51.6615044 C15.0380078,52.2920354 14.6095745,53.1327434 14.5238879,54.0575221 C14.3953579,55.949115 14.3096712,57.630531 14.3096712,59.1858407 C14.2668279,60.8672566 14.2668279,62.6327434 14.3096712,64.4402655 L14.3096712,64.4402655 Z M16.0234043,59.2278761 C16.0662476,57.6725664 16.109091,55.9911504 16.237621,54.1415929 C16.2804643,53.6371681 16.4946809,53.2588496 16.8802709,52.9225664 C17.4800774,52.4181416 18.3797873,52.1659292 19.2794972,52.25 C20.9075436,52.3761062 21.5930368,53.0486726 21.6787235,54.4778761 L21.6787235,54.6880531 C21.6787235,55.7389381 21.6787235,56.789823 21.6787235,57.840708 L21.6787235,59.1858407 L21.6787235,60.6150442 C21.6787235,61.7079646 21.6787235,62.8429204 21.6787235,63.9358407 C21.6358802,65.7013274 19.7507738,66.079646 18.5940039,66.1216814 C17.6942941,66.1637168 16.9231142,65.9535398 16.4518376,65.5331858 C16.1519343,65.2389381 15.980561,64.8606195 15.980561,64.3982301 L15.980561,64.3982301 C15.980561,62.590708 15.980561,60.8672566 16.0234043,59.2278761 Z" id="Shape"></path>
                    </g>
                </g>
            </g>
        </g>
    </g>
</svg>